<mxfile host="app.diagrams.net" modified="2024-04-07T06:34:22.763Z" agent="Mozilla/5.0 (Windows NT 10.0; WOW64) AppleWebKit/537.36 (KHTML, like Gecko) Chrome/102.0.0.0 Safari/537.36" version="23.0.2" etag="-qy9iSZmAPAsOLhrrwdG" type="github">
  <diagram name="Страница — 1" id="vC8HbzHv14ozFgxJRzAN">
    <mxGraphModel>
      <root>
        <mxCell id="0" />
        <mxCell id="1" parent="0" />
      </root>
    </mxGraphModel>
  </diagram>
</mxfile>
